<svg xmlns="http://www.w3.org/2000/svg" xmlns:xlink="http://www.w3.org/1999/xlink" version="1.1" x="0px" y="0px" viewBox="0 0 100 125" enable-background="new 0 0 100 100" xml:space="preserve"><path fill="#1176D4" d="M21.784,73.781l-5.101-1.484c-0.212-0.062-0.433,0.061-0.495,0.27l-0.491,1.687  c-0.03,0.103-0.017,0.211,0.034,0.304c0.05,0.094,0.136,0.162,0.237,0.19l5.102,1.485c0.037,0.011,0.074,0.017,0.111,0.017  c0.173,0,0.333-0.113,0.383-0.289l0.491-1.683c0.029-0.104,0.017-0.213-0.034-0.305C21.972,73.881,21.886,73.811,21.784,73.781z   M20.911,75.354l-4.335-1.262l0.268-0.918l4.335,1.264L20.911,75.354z M6.459,41.298l-0.207-0.35l0.45-0.265  c0.07,0.205,0.144,0.408,0.224,0.612l1.999,5.122c0.016,0.04,0.039,0.076,0.065,0.109c-0.055,0.26-0.039,0.539,0.065,0.806  l7.141,18.294l1.483-5.096l-0.391,0.153l-5.1-13.065l2.097-0.818c0.262,0.396,0.703,0.631,1.169,0.631  c0.17,0,0.343-0.031,0.512-0.097l1.622-0.632l0.357-1.227c0.477-1.638,1.406-3.061,2.625-4.15L9.853,45.508  c-0.082,0.032-0.159,0.071-0.23,0.116l-0.279-0.712l28.189-11.003l0.283,0.725l-0.203,0.079c-0.105,0.015-0.209,0.041-0.313,0.082  L26.425,39.04c0.031,0,0.062-0.002,0.093-0.002c0.842,0,1.683,0.12,2.498,0.357c1.172,0.342,2.222,0.905,3.116,1.63l1.855-0.724  c0.628-0.246,0.98-0.893,0.877-1.534l2.149-0.838l0.942,2.414l-1.31,0.512c-0.646,0.252-1.007,0.702-1.145,1.202l-1.557,0.608  c-0.119-0.074-0.248-0.134-0.383-0.177c0.549,0.708,0.992,1.495,1.31,2.333l1.483-0.58c0.44,0.275,1.011,0.362,1.656,0.11  l1.31-0.512l0.744,1.904l-4.626,1.806c0.046,0.961-0.06,1.947-0.344,2.92l-0.391,1.342c0.149-0.023,0.306-0.063,0.465-0.129  l6.259-2.44l0.686,1.756l-2.315,0.901c0.376,0.104,0.74,0.246,1.086,0.434l1.519-0.596l0.25,0.639l2.621-1.023l-3.461-8.869  l4.452-2.202c0.095-0.047,0.147-0.139,0.154-0.237l6.311-3.122c0.029,0.02,0.062,0.034,0.094,0.042  c0.062,0.014,0.131,0.008,0.191-0.023l0.887-0.439c0.097-0.047,0.146-0.138,0.154-0.236l0.871-0.431  c0.105,0.104,0.24,0.181,0.395,0.217c0.141,0.033,0.277,0.025,0.406-0.007l6,3.261c0.01-0.037,0.016-0.075,0.023-0.111  c0.092-0.351,0.27-0.659,0.506-0.907l-5.896-3.204c-0.051-0.333-0.301-0.615-0.646-0.697c-0.188-0.044-0.373-0.02-0.537,0.052  l-3.621-1.968c-0.106,0.385-0.308,0.724-0.568,0.998l3.725,2.024c0.014,0.037,0.027,0.073,0.046,0.107l-0.825,0.409  c-0.082-0.053-0.188-0.067-0.283-0.021l-0.887,0.439c-0.095,0.046-0.146,0.139-0.154,0.237l-6.312,3.123  c-0.083-0.053-0.187-0.067-0.282-0.021l-4.407,2.18l-0.3-0.769l7.289-7.059c-0.803-0.233-1.393-0.856-1.618-1.608l-6.571,6.363  l-1.278-3.276c-0.07-0.18-0.172-0.335-0.297-0.465c0.067-0.121,0.086-0.268,0.035-0.399l-1.999-5.122  c-0.052-0.131-0.105-0.261-0.159-0.39l0.655-0.257l0.149,0.378l1.453-0.57l-0.889-2.269l-1.454,0.57l0.148,0.378l-0.776,0.304  c-0.227-0.41-0.47-0.807-0.73-1.189c0.012-0.007,0.024-0.011,0.037-0.02c0.209-0.152,0.256-0.446,0.104-0.656  c-1.274-1.751-2.881-3.204-4.776-4.318c-0.223-0.131-0.511-0.056-0.642,0.167c-0.009,0.013-0.014,0.027-0.019,0.041  c-3.805-2.068-8.461-2.509-12.81-0.811l-1.586,0.619c-2.458,0.959-4.526,2.487-6.111,4.375L8.628,25.39l0.231-0.334L7.574,24.17  l-1.385,2.006l1.287,0.886l0.23-0.334l0.775,0.535c-2.277,3.39-3.164,7.646-2.234,11.806l-0.816,0.48l-0.206-0.35l-1.346,0.792  l1.236,2.1L6.459,41.298z M56.322,35.486l5.141,2.793c0.098,0.053,0.133,0.175,0.079,0.272c-0.044,0.081-0.136,0.12-0.222,0.1  c-0.019-0.004-0.033-0.01-0.053-0.019l-5.156-2.804C56.207,35.735,56.279,35.619,56.322,35.486z M55.58,34.943  c0.148,0.035,0.245,0.188,0.209,0.338c-0.035,0.151-0.188,0.245-0.339,0.21c-0.151-0.036-0.245-0.188-0.209-0.339  S55.43,34.908,55.58,34.943z M54.684,35.021c-0.004,0.01-0.002,0.02-0.006,0.029l-2.84-1.543c-0.096-0.053-0.132-0.175-0.08-0.272  c0.055-0.098,0.176-0.133,0.273-0.081l2.816,1.532C54.771,34.781,54.713,34.893,54.684,35.021z M9.339,27.664l7.809-3.048  l-0.894-2.29l0.833-0.325l0.894,2.291l7.871-3.073c4.457,1.018,8.349,4.153,10.136,8.733l0.522,1.337L8.322,42.291l-0.287-0.735  l11-4.307c-0.535-1.372-1.005-2.717-1.393-4.013L6.918,37.422C6.505,33.941,7.407,30.476,9.339,27.664z M19.933,36.898  c-0.535-1.379-1.012-2.731-1.418-4.037l8.411-3.284c0.634,1.22,1.223,2.527,1.768,3.9L19.933,36.898z M28.634,30.823  c-0.245-0.54-0.496-1.069-0.754-1.583l2.687-1.049c0.304,0.547,0.56,1.058,0.795,1.568L28.634,30.823z M76.657,5.506  c0.104-0.192,0.349-0.263,0.54-0.156c1.062,0.587,2.049,1.309,2.934,2.145c0.159,0.152,0.166,0.404,0.014,0.564  c-0.076,0.083-0.182,0.125-0.289,0.125c-0.098,0-0.194-0.036-0.272-0.109c-0.833-0.79-1.765-1.472-2.771-2.026  C76.619,5.942,76.549,5.699,76.657,5.506z M76.723,3.597c0.088-0.202,0.324-0.294,0.524-0.206c1.767,0.771,3.373,1.835,4.776,3.165  c0.16,0.151,0.168,0.403,0.015,0.564c-0.077,0.083-0.185,0.124-0.289,0.124c-0.099,0-0.196-0.036-0.274-0.109  c-1.334-1.266-2.865-2.279-4.547-3.013C76.727,4.034,76.635,3.798,76.723,3.597z M54.82,23.602c-0.512-1.615-0.771-3.3-0.771-5.009  c0-0.22,0.179-0.398,0.397-0.398s0.396,0.179,0.396,0.398c0,1.627,0.248,3.231,0.733,4.768c0.067,0.21-0.05,0.434-0.261,0.5  c-0.039,0.013-0.08,0.019-0.121,0.019C55.029,23.88,54.872,23.771,54.82,23.602z M48.798,33.581  c0.969,0.252,1.958-0.328,2.211-1.297c0.253-0.969-0.329-1.958-1.298-2.211c-0.968-0.252-1.958,0.33-2.209,1.298  C47.25,32.338,47.83,33.329,48.798,33.581z M48.571,31.649c0.098-0.379,0.484-0.605,0.863-0.507  c0.377,0.099,0.604,0.485,0.506,0.864c-0.099,0.377-0.484,0.604-0.864,0.505C48.7,32.413,48.472,32.027,48.571,31.649z   M68.588,37.062c-0.551,0-0.996,0.446-0.996,0.994c0,0.548,0.445,0.994,0.996,0.994c0.547,0,0.993-0.446,0.993-0.994  C69.581,37.508,69.135,37.062,68.588,37.062z M68.588,38.31c-0.143,0-0.256-0.114-0.256-0.254c0-0.14,0.113-0.254,0.256-0.254  c0.139,0,0.252,0.114,0.252,0.254C68.84,38.196,68.727,38.31,68.588,38.31z M20.971,53.225l1.486-5.103  c0.062-0.211-0.06-0.433-0.271-0.494l-1.684-0.491c-0.102-0.029-0.211-0.018-0.304,0.033c-0.093,0.052-0.162,0.137-0.191,0.239  l-1.485,5.102c-0.062,0.212,0.06,0.433,0.271,0.494l1.684,0.49c0.037,0.01,0.074,0.015,0.112,0.015c0.066,0,0.132-0.017,0.191-0.049  C20.873,53.411,20.942,53.324,20.971,53.225z M20.317,52.617l-0.918-0.268l1.262-4.335l0.918,0.267L20.317,52.617z M62.027,39.265  c-0.254,0.969,0.326,1.958,1.295,2.211c0.971,0.252,1.96-0.329,2.211-1.298c0.253-0.968-0.326-1.958-1.297-2.211  C63.268,37.715,62.277,38.297,62.027,39.265z M64.465,39.9c-0.099,0.378-0.484,0.604-0.863,0.506  c-0.377-0.098-0.604-0.484-0.506-0.862c0.102-0.377,0.483-0.605,0.862-0.506C64.338,39.135,64.562,39.522,64.465,39.9z   M66.721,39.186l-0.695,0.129c-0.016-0.072-0.033-0.143-0.055-0.213c0.006-0.023,0.01-0.046,0.014-0.07l0.689-0.312l0.041-0.622  l0.195-0.087C66.859,38.414,66.797,38.806,66.721,39.186z M28.989,31.619l2.724-1.063c0.125,0.298,0.248,0.601,0.371,0.917  l0.231,0.592l-2.698,1.053C29.412,32.609,29.202,32.111,28.989,31.619z M65.876,39.819l3.948-0.727  c0.082-0.016,0.132,0.015,0.15,0.076c0.019,0.055,0,0.111-0.097,0.169c0,0-1.746,1.193-2.082,1.255l-2.384,0.438  c0.184-0.224,0.32-0.486,0.396-0.78C65.848,40.107,65.87,39.962,65.876,39.819z M56.609,22.233  c-0.348-1.098-0.562-2.241-0.637-3.396c-0.015-0.22,0.153-0.41,0.373-0.423c0.225-0.02,0.407,0.152,0.424,0.372  c0.069,1.091,0.271,2.17,0.601,3.207c0.065,0.21-0.05,0.434-0.259,0.501c-0.041,0.012-0.082,0.019-0.121,0.019  C56.82,22.512,56.663,22.403,56.609,22.233z M69.083,36.396c0.019,0.062-0.004,0.116-0.081,0.149l-2.734,1.241l-0.043,0.62  l-0.619,0.282c-0.271-0.478-0.725-0.851-1.297-0.999l-0.047-0.013c-0.111-0.026-0.222-0.04-0.332-0.047l2.551-1.157  c0.312-0.142,2.428-0.161,2.428-0.161C69.02,36.306,69.064,36.342,69.083,36.396z M63.952,17.521  c0.606-0.283,1.33-0.021,1.612,0.587c0.283,0.607,0.021,1.33-0.588,1.613c-0.606,0.283-1.33,0.021-1.613-0.587  C63.081,18.526,63.346,17.804,63.952,17.521z M81.25,51.561c0.307,1.002-0.131,2.19-1.039,2.746l-5.516,3.364  c-0.025,0.019-0.055,0.033-0.084,0.045c-0.074,0.031-0.151,0.038-0.228,0.04l-1.528-0.102c-0.125-0.01-0.24-0.088-0.295-0.213  c-0.054-0.129-0.021-0.275,0.069-0.373c0.188,0.031,0.377,0.051,0.563,0.051c1.547,0,2.898-1.045,3.291-2.541  c0.013-0.051,0.021-0.1,0.031-0.148l3.574-1.511c0.346-0.146,0.508-0.544,0.361-0.89l-0.064-0.154  c-0.062-0.145,0.062-0.213,0.062-0.213l0.592-0.249C81.167,51.359,81.229,51.491,81.25,51.561z M65.764,14.035  c-0.541-1.163-0.039-2.545,1.123-3.086c1.164-0.542,2.547-0.04,3.088,1.123c0.543,1.163,0.041,2.544-1.123,3.087  C67.688,15.701,66.307,15.197,65.764,14.035z M29.691,94.148l-6.289-10.812c-0.084-0.146-0.238-0.232-0.406-0.232h-1.162  l0.253-0.863l0.256,0.072l0,0l0.288,0.084c0.249,0.072,0.509-0.069,0.581-0.318l0.743-2.551c0.073-0.25-0.07-0.508-0.319-0.582  l-0.268-0.076h-0.001l-0.275-0.079l1.589-5.456c0.035-0.12,0.021-0.249-0.04-0.357c-0.06-0.107-0.16-0.188-0.279-0.227l-0.788-0.229  l3.94-13.53l4.451-1.785c0.133-0.056,0.236-0.167,0.275-0.308l1.95-6.69c1.231-4.231-1.208-8.677-5.439-9.911  c-4.231-1.23-8.676,1.211-9.908,5.441l-1.949,6.694c-0.04,0.139-0.015,0.287,0.069,0.403l2.797,3.896l-3.941,13.53l-0.787-0.229  c-0.121-0.034-0.248-0.021-0.357,0.04c-0.109,0.06-0.189,0.158-0.225,0.277l-1.588,5.457l-0.52-0.151  c-0.119-0.034-0.248-0.021-0.358,0.04c-0.108,0.06-0.189,0.158-0.224,0.279l-0.742,2.549c-0.036,0.121-0.021,0.248,0.039,0.357  s0.161,0.188,0.281,0.225l0.354,0.104l0.165,0.05l-1.12,3.843H9.428c-0.167,0-0.322,0.088-0.405,0.233L2.735,94.146  c-0.085,0.146-0.085,0.326-0.001,0.472l0.97,1.675c0.084,0.146,0.239,0.234,0.407,0.234h24.202c0.167,0,0.322-0.09,0.406-0.234  l0.97-1.675C29.776,94.475,29.775,94.294,29.691,94.148z M20.726,56.773c0.041-0.14,0.015-0.287-0.069-0.403l-2.795-3.896  l1.885-6.477c1.087-3.734,5.011-5.889,8.744-4.803c3.735,1.089,5.888,5.013,4.801,8.748l-1.885,6.473l-4.452,1.786  c-0.133,0.054-0.235,0.165-0.275,0.305l-4.004,13.75l-0.723-0.211l5.768-19.807l-0.389-0.79c1.215-0.285,2.247-1.195,2.621-2.479  c0.552-1.894-0.538-3.876-2.432-4.429c-1.894-0.551-3.876,0.538-4.428,2.432c-0.366,1.256-0.008,2.548,0.824,3.438L23.115,50.9  l-5.768,19.807l-0.625-0.182L20.726,56.773z M22.153,60.955l0.438-1.501l0.224,0.065l0.539-1.852l-0.225-0.064l0.438-1.5  l1.351,0.394l-0.438,1.5l-0.225-0.065l-0.539,1.852l0.225,0.064l-0.437,1.502l-0.225-0.064l-2.993,10.279l-0.9-0.264l2.992-10.279  L22.153,60.955z M25.49,47.673c0.166-0.569,0.762-0.896,1.332-0.731c0.569,0.166,0.896,0.762,0.73,1.331  c-0.166,0.569-0.762,0.896-1.331,0.73C25.652,48.838,25.325,48.242,25.49,47.673z M15.222,71.064l0.787,0.229  c0.018,0.006,0.036,0.008,0.055,0.012c0.017,0.008,0.033,0.016,0.051,0.021l6.916,2.014l0,0l0.618,0.181l-1.458,5.006l-8.428-2.455  L15.222,71.064z M12.531,76.689l0.026,0.008l0.495,0.144l0,0l9.872,2.874l-0.48,1.649l-9.873-2.874l0,0l-0.52-0.151L12.531,76.689z   M12.76,79.521l8.428,2.453l-0.331,1.129h-9.14L12.76,79.521z M18.923,93.589h-5.462v-2.972h5.462V93.589z M18.923,89.82h-5.462  v-0.281h5.462V89.82z M22.419,93.589H19.72v-4.45c0-0.219-0.178-0.396-0.398-0.396h-6.259c-0.221,0-0.399,0.18-0.399,0.396v4.45  H9.901v-0.552c0-3.452,2.808-6.262,6.26-6.262c3.452,0,6.259,2.81,6.259,6.262L22.419,93.589L22.419,93.589z M23.217,93.589v-0.552  c0-3.893-3.166-7.059-7.057-7.059c-3.892,0-7.058,3.166-7.058,7.059v0.552H4.147l5.554-9.547h13.025l5.554,9.547H23.217z   M68.588,32.395c-0.551,0-0.996,0.446-0.996,0.994c0,0.548,0.445,0.994,0.996,0.994c0.547,0,0.993-0.446,0.993-0.994  C69.581,32.841,69.135,32.395,68.588,32.395z M68.588,33.643c-0.143,0-0.256-0.114-0.256-0.254c0-0.14,0.113-0.254,0.256-0.254  c0.139,0,0.252,0.114,0.252,0.254C68.84,33.529,68.727,33.643,68.588,33.643z M87.891,34.376c0.549,0,0.994-0.446,0.994-0.994  c0-0.549-0.445-0.995-0.994-0.995c-0.547,0-0.994,0.446-0.994,0.995C86.896,33.93,87.344,34.376,87.891,34.376z M87.891,33.128  c0.142,0,0.254,0.113,0.254,0.254c0,0.14-0.112,0.253-0.254,0.253c-0.14,0-0.254-0.114-0.254-0.253  C87.637,33.242,87.752,33.128,87.891,33.128z M80.568,27.061c0.549,0,0.994-0.446,0.994-0.994c0-0.548-0.445-0.994-0.994-0.994  c-0.547,0-0.993,0.446-0.993,0.994C79.575,26.615,80.021,27.061,80.568,27.061z M80.568,25.812c0.14,0,0.254,0.114,0.254,0.254  s-0.114,0.253-0.254,0.253c-0.139,0-0.254-0.113-0.254-0.253C80.314,25.927,80.43,25.812,80.568,25.812z M75.9,27.061  c0.549,0,0.994-0.446,0.994-0.994c0-0.548-0.445-0.994-0.994-0.994c-0.547,0-0.992,0.446-0.992,0.994  C74.908,26.615,75.354,27.061,75.9,27.061z M75.9,25.812c0.141,0,0.254,0.114,0.254,0.254s-0.113,0.253-0.254,0.253  c-0.139,0-0.252-0.113-0.252-0.253C75.648,25.927,75.762,25.812,75.9,25.812z M87.891,37.055c-0.547,0-0.994,0.446-0.994,0.994  c0,0.548,0.447,0.995,0.994,0.995c0.549,0,0.994-0.446,0.994-0.995C88.887,37.501,88.439,37.055,87.891,37.055z M87.891,38.302  c-0.14,0-0.254-0.113-0.254-0.253c0-0.14,0.114-0.254,0.254-0.254c0.142,0,0.254,0.114,0.254,0.254  C88.145,38.189,88.031,38.302,87.891,38.302z M93.12,28.765c-1.502-3.224-3.946-5.816-7.071-7.496  c-0.281-0.153-0.572-0.294-0.865-0.43l0.002-0.004c-0.088-0.041-0.178-0.079-0.266-0.117c-0.018-0.007-0.029-0.014-0.046-0.021  c-2.082-0.921-4.291-1.388-6.524-1.398c1.672-1.425,2.588-2.785,2.531-3.826v-0.006l-0.005-0.018  c-0.004-0.021-0.004-0.033-0.008-0.045c-0.177-0.747-0.429-1.479-0.753-2.176c-2.287-4.903-7.725-7.448-12.948-6.07L65.648,3.9  c-0.092-0.193-0.322-0.277-0.515-0.187c-0.194,0.09-0.278,0.321-0.188,0.515l1.471,3.156c-0.396,0.134-0.771,0.286-1.125,0.45  c-0.086,0.04-0.17,0.083-0.253,0.125l-0.478-1.023l-0.168,0.078l-1.678-3.595c0.074-0.111,0.086-0.254,0.028-0.376l-0.36-0.774  c-0.09-0.193-0.32-0.277-0.515-0.188c-0.192,0.09-0.276,0.321-0.187,0.515L62.04,3.37c0.06,0.122,0.174,0.205,0.308,0.221  l1.676,3.594l-0.168,0.078l0.496,1.065c-2.369,1.392-4.136,3.605-4.974,6.242c-0.854,2.675-0.671,5.547,0.517,8.086  c0.312,0.672,0.696,1.318,1.14,1.919l0.002-0.001c0.019,0.027,0.046,0.06,0.071,0.081h-0.002c0.752,0.74,2.397,0.921,4.596,0.549  c-1.676,2.019-2.87,4.439-3.432,7.017c-0.39,1.799-0.474,3.617-0.261,5.4l0.441,0.241c0.251-0.178,0.54-0.307,0.854-0.374  c0.157-0.033,0.312-0.046,0.469-0.046l-0.043-0.24l0.457-0.207c-0.164-1.811,0.021-3.635,0.533-5.366  c0.352,1.201,0.536,2.603,0.536,4.097c0,0.274-0.009,0.538-0.019,0.792l0.748-0.339c0.005-0.151,0.011-0.301,0.011-0.453  c0-1.943-0.312-3.792-0.884-5.24c0.053-0.13,0.103-0.261,0.156-0.39c0.658,1.53,1.031,3.559,1.031,5.63  c0,0.104-0.002,0.209-0.002,0.312c0.051-0.022,0.11-0.041,0.188-0.057c0.555-0.117,2.176-0.136,2.4-0.139  c0.273-0.011,0.453,0.106,0.559,0.253h0.83c0.182,4.104,3.488,7.408,7.594,7.587v3.229c-2.375,0.045-4.53,0.518-6.11,1.336  c-2.519-1.302-4.665-3.363-6.055-6.044c0.135-0.258,0.258-0.533,0.37-0.82l-0.948,0.175c-0.257,0.189-0.556,0.325-0.884,0.395  c-0.348,0.073-0.698,0.065-1.044-0.025c-0.023-0.006-0.046-0.016-0.068-0.021c0.095,0.234,0.195,0.467,0.306,0.698  c0.856,1.844,2.021,3.452,3.398,4.794c0.152-0.224,0.335-0.429,0.546-0.605c0.179-0.147,0.394-0.229,0.603-0.229  c0.276,0,0.524,0.134,0.686,0.37l0.379,0.565l0.02,0.034c0.174,0.33,0.127,0.834-0.297,1.121l-0.117,0.079l0.24,0.358  c0.877,0.614,1.812,1.141,2.787,1.57c0.459-0.228,0.975-0.356,1.51-0.356c0.291,0,0.582,0.038,0.865,0.112  c0.848,0.225,1.557,0.749,2.02,1.484c1.188,0.164,2.4,0.195,3.613,0.093c-0.096-0.411,0.125-0.784,0.414-0.946l0.035-0.021  l0.627-0.268c0.107-0.044,0.217-0.066,0.328-0.066c0.377,0,0.699,0.258,0.828,0.656c0.025,0.092,0.049,0.187,0.066,0.279  c1.086-0.253,2.16-0.618,3.209-1.107C93.385,46.71,96.938,36.947,93.12,28.765z M90.828,29.118c-0.854,1.588-1.35,3.786-1.395,6.223  h-3.263c-0.203-4.078-3.489-7.357-7.571-7.548v-3.268c2.441-0.047,4.65-0.545,6.243-1.406  C87.348,24.427,89.455,26.487,90.828,29.118z M83.967,22.712c-1.543,0.685-3.615,1.076-5.736,1.076  c-2.113,0-4.178-0.387-5.717-1.068c0.123-0.055,0.25-0.109,0.375-0.162c1.465,0.596,3.352,0.924,5.342,0.924  c1.998,0,3.896-0.33,5.359-0.93C83.715,22.604,83.84,22.657,83.967,22.712z M80.807,21.739c0.062,0.011,0.123,0.02,0.182,0.032  c0.014,0.002,0.027,0.005,0.039,0.007c0.49,0.099,0.979,0.227,1.465,0.379c-1.235,0.383-2.697,0.585-4.262,0.585  c-1.885,0-3.299-0.288-4.25-0.58c0.795-0.252,1.607-0.435,2.435-0.542l0.002,0.021C77.91,21.442,79.389,21.484,80.807,21.739z   M65.619,8.535c0.984-0.458,2.021-0.756,3.086-0.891l-5.749,2.681C63.743,9.595,64.639,8.994,65.619,8.535z M60.6,22.328  c-1.603-3.437-1.199-7.474,1.055-10.541l9.01-4.202c3.795,0.247,7.146,2.534,8.751,5.97c0.039,0.089,0.079,0.18,0.119,0.271  l-1.856,0.866l-0.312-0.667l-0.576,0.268L77.1,14.96l-0.373,0.174l-0.307-0.67l-2.678,1.249l0.312,0.667l-0.488,0.227l-2.381-5.102  c-0.854-1.829-3.033-2.623-4.863-1.771c-1.828,0.854-2.621,3.036-1.77,4.864l0.475,1.018l-1.613,0.752  c-1.24,0.579-1.779,2.06-1.201,3.302l0.854,1.833l-0.104,0.048l-0.311-0.667l-0.832,0.387l0.312,0.667l-0.158,0.074l-0.311-0.667  l-0.438,0.204l0.312,0.667l-0.17,0.079l-0.312-0.667l-0.255,0.12l0.312,0.667l-0.383,0.179C60.686,22.506,60.643,22.418,60.6,22.328  z M65.256,14.272c-0.673-1.441-0.047-3.162,1.396-3.834c1.441-0.673,3.162-0.047,3.834,1.396l2.379,5.102l-5.229,2.438  L65.256,14.272z M66.932,19.702l-3.164,1.475l-0.853-1.833c-0.399-0.854-0.028-1.874,0.827-2.271l1.613-0.752L66.932,19.702z   M61.518,23.913c-0.188-0.267-0.371-0.558-0.545-0.863l18.752-8.744c0.123,0.329,0.229,0.655,0.313,0.97L61.518,23.913z   M67.045,35.356c-0.047-2.392-0.525-4.559-1.352-6.141c0.789-1.552,1.871-2.972,3.227-4.165l-0.01-0.013  c0.85-0.75,1.771-1.383,2.747-1.899c1.585,0.849,3.776,1.34,6.202,1.386v3.268c-4.09,0.187-7.385,3.476-7.577,7.564H67.045z   M77.547,40.21l-0.268,1.817c-2.725-0.408-4.903-2.566-5.334-5.287l1.804-0.265v-1.461l-1.806-0.265  c0.423-2.707,2.582-4.87,5.291-5.294l0.248,1.697h1.461l0.25-1.701c2.699,0.412,4.869,2.556,5.312,5.25l-1.699,0.249v1.462  l1.713,0.251c-0.396,2.717-2.539,4.901-5.246,5.349l-0.266-1.804h-1.461V40.21z M74.163,49.227c1.196-0.348,2.595-0.531,4.083-0.531  c1.809,0,3.184,0.264,4.135,0.544C79.637,50.07,76.782,50.024,74.163,49.227z M83.51,48.845c-1.453-0.576-3.308-0.89-5.264-0.89  c-1.932,0-3.771,0.309-5.217,0.873c-0.127-0.052-0.258-0.104-0.385-0.159c1.524-0.65,3.541-1.019,5.602-1.019  c2.082,0,4.113,0.375,5.643,1.036C83.762,48.739,83.637,48.794,83.51,48.845z M84.768,48.27c-1.582-0.831-3.75-1.311-6.149-1.356  v-3.23c4.093-0.199,7.382-3.503,7.559-7.602h3.259c0.047,2.415,0.532,4.601,1.377,6.188C89.501,44.768,87.441,46.894,84.768,48.27z   M91.227,41.402c-0.674-1.537-1.06-3.59-1.06-5.69c0-2.121,0.392-4.186,1.071-5.726c0.057,0.124,0.111,0.247,0.164,0.372  c-0.6,1.465-0.928,3.357-0.928,5.354c0,1.977,0.321,3.855,0.912,5.314C91.336,41.152,91.282,41.277,91.227,41.402z M91.784,39.925  c-0.373-1.227-0.569-2.671-0.569-4.214c0-1.887,0.289-3.298,0.582-4.25C92.68,34.285,92.633,37.233,91.784,39.925z M81.555,37.292  L83,38.027l-0.033,0.066c-0.561,1.1-1.492,1.976-2.623,2.466l-0.066,0.03L79.631,39.1l0.066-0.029  c0.787-0.341,1.436-0.949,1.822-1.712L81.555,37.292z M76.902,45.371c0-0.548-0.444-0.994-0.992-0.994  c-0.551,0-0.996,0.446-0.996,0.994c0,0.549,0.445,0.994,0.996,0.994C76.458,46.365,76.902,45.92,76.902,45.371z M75.654,45.371  c0-0.14,0.113-0.254,0.256-0.254c0.139,0,0.253,0.114,0.253,0.254c0,0.14-0.114,0.254-0.253,0.254  C75.768,45.625,75.654,45.511,75.654,45.371z M75.184,37.725l0.041,0.062l-1.359,0.884l-0.04-0.062  c-0.271-0.413-0.479-0.861-0.623-1.333l-0.021-0.071l1.551-0.477l0.021,0.07C74.852,37.126,74.997,37.439,75.184,37.725z   M80.575,44.377c-0.548,0-0.994,0.446-0.994,0.994c0,0.549,0.446,0.994,0.994,0.994s0.995-0.445,0.995-0.994  C81.57,44.823,81.123,44.377,80.575,44.377z M80.575,45.625c-0.14,0-0.253-0.114-0.253-0.254c0-0.14,0.113-0.254,0.253-0.254  c0.142,0,0.255,0.114,0.255,0.254C80.83,45.511,80.717,45.625,80.575,45.625z M79.081,35.786h-1.728l0.002-0.076  c0-0.005,0-0.011,0.002-0.012c0-0.346-0.282-0.627-0.627-0.627c-0.349,0-0.629,0.282-0.631,0.624l0.002,0.011l0.004,0.08h-1.568  l0.002-0.074c0.016-2.02,1.668-3.664,3.688-3.664c0.332,0,0.66,0.045,0.979,0.132l0.586-1.921l0.069,0.022  c1.264,0.384,2.357,1.202,3.086,2.304l0.039,0.062l-1.654,1.094c0.378,0.588,0.581,1.268,0.586,1.97v0.074H80.33l0.004-0.076  c0-0.005,0-0.011,0.002-0.012c0-0.346-0.281-0.627-0.63-0.627c-0.347,0-0.625,0.282-0.627,0.624l0.002,0.011V35.786z M70.209,15.704  c0.381-0.177,0.832-0.013,1.01,0.367c0.176,0.38,0.012,0.832-0.367,1.009c-0.379,0.177-0.832,0.012-1.008-0.368  C69.665,16.333,69.83,15.881,70.209,15.704z M33.891,66.67l-2.711-6.943c-0.047-0.121,0.012-0.258,0.134-0.304  c0.121-0.048,0.256,0.011,0.303,0.132l2.711,6.945c0.046,0.12-0.013,0.257-0.134,0.303c-0.028,0.014-0.056,0.018-0.084,0.018  C34.016,66.82,33.928,66.764,33.891,66.67z M30.371,60.03l2.71,6.944c0.047,0.119-0.013,0.258-0.133,0.305  c-0.028,0.012-0.057,0.017-0.084,0.017c-0.094,0-0.182-0.057-0.22-0.149l-2.71-6.943c-0.047-0.121,0.012-0.258,0.133-0.305  S30.324,59.911,30.371,60.03z M35.096,66.188l-2.711-6.942c-0.046-0.119,0.013-0.256,0.133-0.304  c0.121-0.049,0.256,0.014,0.304,0.134l2.711,6.944c0.047,0.119-0.013,0.256-0.133,0.305c-0.029,0.011-0.057,0.017-0.086,0.017  C35.221,66.339,35.132,66.281,35.096,66.188z M25.601,72.143c-0.024-0.013-0.049-0.021-0.075-0.031l-0.787-0.229l0.325-1.115  L25.601,72.143z M25.482,73.939l0.351-1.203l0.254,0.648c0.091,0.23,0.32,0.391,0.572,0.391c0.074,0,0.148-0.017,0.218-0.043  l2.953-1.152c0.313-0.122,0.468-0.477,0.347-0.791l-3.099-7.938l0.366-1.258l3.476,8.904c0.281,0.722-0.078,1.542-0.799,1.822  l-2.953,1.152C26.54,74.719,25.84,74.48,25.482,73.939z M45.326,83.287c-0.089-0.116-0.226-0.184-0.372-0.184h-1.538l-1.019-3.5  c-0.006-0.021-0.015-0.039-0.023-0.06c0.68-0.813,1.162-1.801,1.375-2.883l1.802-0.701c0.213-0.083,0.402-0.217,0.553-0.392  l5.388-6.223c0.344-0.396,0.438-0.947,0.246-1.433l-4.42-11.323l-2.62,1.025l3.954,10.13l-24.104,9.407l-0.29,0.994l0.544,0.16  c0.249,0.07,0.392,0.332,0.319,0.578l-0.539,1.852l6.421,0.728c0.227,0.026,0.457-0.004,0.669-0.088l1.908-0.742  c0.681,0.498,1.461,0.864,2.306,1.069l0.407,1.398h-1.495c-0.152,0-0.295,0.071-0.383,0.195l-5.463,7.711l0.519,0.895l5.57-7.862  h9.683l7.355,9.547h-4.866v-0.552c0-3.893-3.166-7.059-7.057-7.059c-3.891,0-7.057,3.166-7.057,7.059v0.552h-2.647l0.05,0.088  c0.253,0.437,0.254,0.978,0.001,1.412l-0.834,1.44h22.642c0.168,0,0.319-0.09,0.405-0.235l0.972-1.675  c0.096-0.163,0.08-0.371-0.035-0.522L45.326,83.287z M30.972,78.632l-6.209-0.706l23.53-9.183l-4.089,4.723L30.972,78.632z   M34.485,80.28l8.354-3.261c-0.696,2.349-2.871,4.066-5.443,4.066C36.332,81.088,35.337,80.793,34.485,80.28z M37.269,83.104  l-0.36-1.237c0.161,0.012,0.323,0.021,0.487,0.021c1.615,0,3.093-0.596,4.229-1.574l0.814,2.795h-5.17V83.104z M42.919,93.589  h-5.462v-2.972h5.462V93.589z M42.919,89.82h-5.462v-0.281h5.462V89.82z M46.414,93.589h-2.698v-4.45  c0-0.219-0.179-0.396-0.399-0.396h-6.26c-0.22,0-0.398,0.18-0.398,0.396v4.45h-2.764v-0.552c0-3.452,2.808-6.262,6.26-6.262  c3.452,0,6.26,2.81,6.26,6.262L46.414,93.589z M32.537,70.893L28.5,60.552c-0.121-0.311-0.123-0.638-0.028-0.935l4.267-1.713  c0.134-0.053,0.236-0.165,0.275-0.305l0.003-0.013c0.028,0.289,0.078,0.571,0.15,0.845c-0.11-0.097-0.255-0.152-0.408-0.152  c-0.074,0-0.147,0.012-0.218,0.041l-2.953,1.152c-0.15,0.057-0.27,0.172-0.336,0.322c-0.066,0.148-0.069,0.314-0.011,0.465  l4.037,10.342c0.09,0.231,0.32,0.389,0.571,0.389c0.074,0,0.148-0.014,0.218-0.042l2.953-1.151c0.313-0.123,0.469-0.479,0.347-0.791  l-3.532-9.047c0.378,0.591,0.871,1.105,1.445,1.51l2.83,7.247c0.281,0.722-0.079,1.541-0.799,1.822l-2.953,1.153  C33.639,71.973,32.819,71.613,32.537,70.893z M72.633,56.354c0.188,0.039,0.375,0.062,0.562,0.062c1.227,0,2.3-0.829,2.613-2.016  c0.183-0.697,0.082-1.426-0.281-2.049c-0.362-0.625-0.948-1.067-1.646-1.252c-0.225-0.059-0.455-0.089-0.688-0.089  c-1.228,0-2.301,0.827-2.613,2.015c-0.123,0.476-0.111,0.951,0.01,1.394l-9.4,9.937c-0.021-0.004-0.043-0.01-0.063-0.014  l-4.501-11.884c0.061-0.08,0.117-0.163,0.169-0.251c0.759-1.284,0.33-2.942-0.951-3.7c-0.415-0.246-0.892-0.375-1.372-0.375  c-0.953,0-1.846,0.509-2.326,1.328c-0.16,0.266-0.263,0.55-0.32,0.838l-3.408,1.334l-0.171-0.438l-6.823,2.672  c-0.796-0.758-1.871-1.225-3.053-1.225c-2.445,0-4.433,1.987-4.433,4.434c0,2.443,1.988,4.435,4.433,4.435  c2.349,0,4.275-1.837,4.422-4.147l6.822-2.67l-0.171-0.438l3.347-1.311c0.096,0.076,0.197,0.149,0.307,0.217  c0.283,0.166,0.592,0.277,0.912,0.335l4.49,11.846c-0.07,0.091-0.137,0.185-0.193,0.282c-0.758,1.282-0.33,2.941,0.951,3.7  c0.418,0.243,0.893,0.372,1.373,0.372c0.952,0,1.844-0.508,2.327-1.326c0.386-0.651,0.462-1.398,0.278-2.078L72.633,56.354z   M72.434,53.514c0.09-0.347,0.401-0.589,0.762-0.589c0.064,0,0.134,0.011,0.199,0.027c0.203,0.053,0.373,0.182,0.479,0.362  c0.106,0.184,0.136,0.396,0.082,0.599c-0.09,0.347-0.401,0.588-0.761,0.588c-0.066,0-0.135-0.009-0.2-0.026  C72.575,54.365,72.324,53.934,72.434,53.514z M38.365,60.729c-2.017,0-3.655-1.641-3.655-3.654s1.639-3.655,3.655-3.655  c2.015,0,3.655,1.642,3.655,3.655S40.38,60.729,38.365,60.729z M55.143,51.232c-0.142,0.242-0.396,0.388-0.68,0.388  c-0.141,0-0.273-0.038-0.396-0.11c-0.373-0.22-0.498-0.703-0.276-1.079c0.146-0.242,0.396-0.386,0.681-0.386  c0.141,0,0.273,0.036,0.396,0.109c0.183,0.107,0.312,0.277,0.361,0.48C55.281,50.839,55.251,51.051,55.143,51.232z M61.305,67.395  c-0.145,0.244-0.397,0.389-0.681,0.389c-0.144,0-0.276-0.036-0.399-0.109c-0.373-0.22-0.498-0.703-0.275-1.078  c0.144-0.242,0.396-0.387,0.679-0.387c0.144,0,0.274,0.037,0.397,0.109c0.183,0.106,0.312,0.275,0.363,0.48  C61.439,67.002,61.412,67.215,61.305,67.395z M39.937,56.377c-0.031-0.07-0.067-0.138-0.107-0.201  c0.31-0.281,0.64-0.583,0.943-0.857c0.061-0.057,0.068-0.147,0.016-0.211c-0.334-0.414-0.772-0.734-1.268-0.934  c-0.077-0.029-0.165,0.006-0.199,0.08c-0.169,0.371-0.353,0.776-0.526,1.157c-0.151-0.04-0.308-0.06-0.465-0.058  c-0.091-0.41-0.186-0.847-0.273-1.246c-0.017-0.08-0.094-0.133-0.176-0.119c-0.524,0.082-1.032,0.304-1.448,0.632  c-0.065,0.052-0.079,0.146-0.031,0.212c0.237,0.332,0.496,0.693,0.739,1.035c-0.115,0.115-0.209,0.246-0.286,0.387  c-0.4-0.128-0.826-0.264-1.215-0.387c-0.078-0.025-0.163,0.016-0.192,0.092c-0.192,0.504-0.251,1.05-0.171,1.579  c0.013,0.081,0.086,0.138,0.168,0.13c0.406-0.04,0.85-0.082,1.267-0.122c0.022,0.076,0.047,0.151,0.08,0.226  c0.034,0.076,0.075,0.147,0.118,0.219c-0.311,0.281-0.64,0.584-0.941,0.855c-0.061,0.057-0.068,0.148-0.016,0.215  c0.34,0.412,0.785,0.732,1.286,0.926c0.04,0.017,0.083,0.014,0.119-0.004c0.034-0.014,0.062-0.041,0.079-0.075  c0.169-0.372,0.355-0.778,0.529-1.162c0.153,0.038,0.313,0.054,0.474,0.047c0.089,0.408,0.185,0.844,0.271,1.242  c0.018,0.082,0.095,0.134,0.177,0.118c0.255-0.043,0.505-0.118,0.742-0.226c0.25-0.11,0.484-0.254,0.695-0.424  c0.064-0.053,0.077-0.144,0.029-0.212c-0.237-0.332-0.498-0.695-0.74-1.037c0.107-0.113,0.197-0.24,0.268-0.378  c0.397,0.127,0.822,0.261,1.213,0.386c0.037,0.012,0.076,0.01,0.109-0.006c0.038-0.017,0.067-0.046,0.083-0.088  c0.186-0.498,0.243-1.038,0.163-1.562c-0.013-0.082-0.086-0.14-0.167-0.131c-0.408,0.039-0.853,0.084-1.269,0.123  C39.994,56.521,39.97,56.449,39.937,56.377z M38.698,57.823c-0.414,0.184-0.898-0.003-1.083-0.417  c-0.183-0.414,0.004-0.899,0.417-1.083c0.413-0.185,0.898,0.004,1.083,0.418C39.298,57.154,39.111,57.641,38.698,57.823z   M42.042,60.973l0.397,1.021l-3.755,1.466l-0.397-1.019c0.026,0.002,0.053,0.004,0.078,0.004  C39.767,62.443,41.07,61.885,42.042,60.973z M68.243,48.166c-0.313,0.209-0.396,0.631-0.187,0.942l2.084,3.105  c-0.048,0.096-0.091,0.192-0.127,0.293c-0.005,0.008-0.007,0.016-0.009,0.021c-0.041,0.104-0.075,0.209-0.104,0.32  c-0.029,0.109-0.053,0.223-0.069,0.336c-0.004,0.015-0.004,0.026-0.006,0.041c-0.015,0.101-0.024,0.198-0.032,0.299  c0,0.007,0,0.011,0,0.016c-0.01,0.223,0,0.443,0.032,0.663l-0.487,0.516l-2.14-4.516c-0.454-0.961-0.173-2.195,0.635-2.866  c0.056-0.047,0.181-0.121,0.255-0.009l0.357,0.532c0,0,0.063,0.125-0.064,0.212L68.243,48.166z M42.704,62.67l0.471,1.205  l-3.755,1.466l-0.471-1.207L42.704,62.67z M43.438,64.55l0.47,1.205l-3.755,1.468l-0.471-1.205L43.438,64.55z M40.888,69.104  l-0.47-1.205l3.755-1.467l0.471,1.207L40.888,69.104z"/><text x="0" y="115" fill="#000000" font-size="5px" font-weight="bold" font-family="'Helvetica Neue', Helvetica, Arial-Unicode, Arial, Sans-serif">Created by Simon Child</text><text x="0" y="120" fill="#000000" font-size="5px" font-weight="bold" font-family="'Helvetica Neue', Helvetica, Arial-Unicode, Arial, Sans-serif">from the Noun Project</text></svg>
