<svg xmlns="http://www.w3.org/2000/svg" xmlns:xlink="http://www.w3.org/1999/xlink" xml:space="preserve" version="1.1" style="shape-rendering:geometricPrecision;text-rendering:geometricPrecision;image-rendering:optimizeQuality;" viewBox="0 0 60000 75000" x="0px" y="0px" fill-rule="evenodd" clip-rule="evenodd"><defs><style type="text/css">

    .fil0 {fill:#1176D4}

  </style></defs><g><path class="fil0" d="M42825 38691l-28499 -19955c-393,-265 -768,-244 -1036,-75 -104,66 -194,154 -264,257 -70,102 -119,217 -142,337 -58,303 58,647 437,905l5 3 0 0 28500 19956 1000 -1428zm-25927 -23548c-26,135 -158,224 -293,197 -135,-26 -224,-158 -197,-293l478 -2442 -2590 3463c-83,110 -239,132 -349,50 -110,-83 -132,-239 -50,-349l3232 -4321c53,-85 155,-132 259,-112 135,26 224,158 197,293l-688 3514zm-6643 5496c83,-110 239,-132 349,-50 110,83 132,239 50,349l-2408 3220 3273 -1703c122,-64 273,-16 337,106 64,122 16,273 -106,337l-4243 2208 0 -1c-82,43 -185,38 -264,-22 -110,-83 -132,-239 -50,-349l3063 -4095zm8990 -1642c-122,64 -273,16 -337,-106 -64,-122 -16,-273 106,-337l2028 -1055 -3770 117c-138,4 -252,-105 -256,-242 -4,-138 105,-252 242,-256l4842 -150c100,-11 200,39 249,133 64,122 16,273 -106,337l-2997 1560zm-9283 -1653c138,-4 252,105 256,242 4,138 -105,252 -242,256l-3354 104 3076 1366c126,56 183,202 127,328 -56,126 -202,183 -328,127l-4061 -1803c-92,-35 -158,-122 -161,-226 -4,-138 105,-252 242,-256l4445 -138zm3004 -2371c89,105 76,263 -29,352 -105,89 -263,76 -352,-29l-2116 -2491 625 2394c35,133 -46,269 -179,304 -133,35 -269,-46 -304,-179l-898 -3438c-29,-93 -2,-199 77,-266 105,-89 263,-76 352,29l2824 3324zm-49 9180c-35,-133 46,-269 179,-304 133,-35 269,46 304,179l714 2735 481 -2458c26,-135 158,-224 293,-197 135,26 224,158 197,293l-692 3531 -1 0c-18,91 -86,169 -182,193 -133,35 -269,-46 -304,-179l-990 -3793zm35195 19527l-2220 -1545 -837 1731 1681 1177 1376 -1363zm-1951 -1967l2240 1559 852 -1826 -1681 -1177 -1411 1444zm3184 -1896l-355 -249 -158 225 355 249 158 -225zm-225 -1130l1008 706c180,126 224,374 98,555l-568 811 317 222c162,107 225,320 141,501l-449 963 5038 3528c180,126 224,374 98,555l-1381 1972c-126,180 -374,224 -555,98l-5030 -3522 -776 768 0 0c-134,134 -349,156 -509,44l-2213 -1550c-173,-106 -240,-327 -150,-513l471 -974 -987 -691 -378 540c-126,180 -374,224 -555,98l-1279 -895c-180,-126 -224,-374 -98,-555l273 -389 -11635 -8147 -11635 8147 273 389c126,180 82,429 -98,555l-1279 895c-180,126 -429,82 -555,-98l-378 -540 -987 691 471 974c90,186 22,408 -150,513l-2213 1550c-161,112 -375,90 -509,-44l0 0 -776 -768 -5030 3522c-180,126 -429,82 -555,-98l-1381 -1972c-126,-180 -82,-429 98,-555l5038 -3528 -449 -963c-85,-181 -21,-394 141,-501l317 -222 -568 -811c-126,-180 -82,-429 98,-555l1008 -706c180,-126 429,-82 555,98l567 810 247 -173c162,-113 380,-89 514,49l0 0 738 755 988 -692 -455 -649c-126,-180 -82,-429 98,-555l1279 -895c180,-126 429,-82 555,98l484 692 10641 -7451 -14222 -9958c-682,-465 -882,-1119 -770,-1708 44,-230 136,-449 267,-640 130,-191 300,-357 499,-482 513,-324 1208,-381 1904,88 4,3 9,6 13,9l15217 10655 15217 -10655c4,-3 9,-6 13,-9 697,-469 1391,-412 1904,-88 199,126 369,292 499,482 131,191 223,410 267,640 112,589 -88,1243 -770,1708l-14222 9958 10641 7451 484 -692c126,-180 374,-224 555,-98l1279 895c180,126 224,374 98,555l-455 649 988 692 738 -755 0 0c134,-138 351,-162 514,-49l247 173 567 -810c126,-180 374,-224 555,-98zm-213 5329l-494 489 4585 3210 -4091 -3700zm-3896 -1893l330 -683c18,-38 43,-73 73,-105l520 -532 -875 -613 -924 1320 875 613zm73 -3369l-626 -438 -2214 3162 626 438 2214 -3162zm-12870 -8466l14460 -10125 0 0 5 -3c380,-258 495,-602 437,-905 -23,-119 -72,-234 -142,-337 -70,-103 -160,-191 -264,-257 -268,-169 -643,-190 -1036,74l-14979 10488 1520 1064zm-2909 2037l-1520 -1064 -10611 7430 1000 1428 11131 -7794zm14287 -17277c26,135 -62,267 -197,293 -135,26 -267,-62 -293,-197l-688 -3514c-26,-135 62,-267 197,-293 104,-20 206,27 259,112l3232 4321c83,110 60,266 -50,349 -110,83 -266,60 -349,-50l-2590 -3463 478 2442zm5754 5891c-83,-110 -60,-266 50,-349 110,-83 266,-60 349,50l3063 4095c83,110 60,266 -50,349 -79,59 -182,64 -264,22l0 1 -4243 -2208c-122,-64 -170,-214 -106,-337 64,-122 214,-170 337,-106l3273 1703 -2408 -3220zm-8361 -2384c122,64 170,214 106,337 -64,122 -214,170 -337,106l-2997 -1560c-122,-64 -170,-214 -106,-337 49,-94 150,-144 249,-133l4842 150c138,4 246,118 242,256 -4,138 -118,246 -256,242l-3770 -117 2028 1055zm9039 -712c-138,-4 -246,-118 -242,-256 4,-138 118,-246 256,-242l4445 138c138,4 246,118 242,256 -3,104 -69,191 -161,226l-4061 1803c-126,56 -273,-1 -328,-127 -56,-126 1,-273 127,-328l3076 -1366 -3354 -104zm-2609 -2546c-89,105 -246,118 -352,29 -105,-89 -118,-246 -29,-352l2824 -3324c89,-105 246,-118 352,-29 79,67 106,173 77,266l-898 3438c-35,133 -171,213 -304,179 -133,-35 -213,-171 -179,-304l625 -2394 -2116 2491zm-814 8733c35,-133 171,-213 304,-179 133,35 213,171 179,304l-990 3793c-35,133 -171,213 -304,179 -96,-25 -164,-102 -182,-193l-1 0 -692 -3531c-26,-135 62,-267 197,-293 135,-26 267,62 293,197l481 2458 714 -2735zm-35001 19244l2240 -1559 -1411 -1444 -1681 1177 852 1826zm2509 -1137l-2220 1545 1376 1363 1681 -1177 -837 -1731zm-3098 -2566l-355 249 158 225 355 -249 -158 -225zm3055 1234l520 532c31,32 55,67 73,105l330 683 875 -613 -924 -1320 -875 613zm-2478 3702l-494 -489c-233,-232 -3614,3243 -4091,3700l4585 -3210zm3954 -6189l-626 438 2214 3162 626 -438 -2214 -3162z"/></g><text x="0" y="60015" fill="#000000" font-size="5px" font-weight="bold" font-family="'Helvetica Neue', Helvetica, Arial-Unicode, Arial, Sans-serif"></text><text x="0" y="60020" fill="#000000" font-size="5px" font-weight="bold" font-family="'Helvetica Neue', Helvetica, Arial-Unicode, Arial, Sans-serif"></text></svg>
