<svg xmlns="http://www.w3.org/2000/svg" xmlns:xlink="http://www.w3.org/1999/xlink" version="1.1" x="0px" y="0px" viewBox="0 0 100 125" style="enable-background:new 0 0 100 100;" xml:space="preserve"><style type="text/css">
	.st0{fill:#4c3bfe;}
</style><title>icons nounproject_2</title><g><path class="st0" d="M92.6,69.3l-3.4-1.9L67.4,52.1l-10.9-8.1l-4.3-1.3l5.9-2.2L64,44c0,0,0,0,0,0c0,0,0,0,0,0l0,0l0,0   c0.2,0.1,0.3,0.1,0.5,0.1c0.3,0,0.5-0.1,0.8-0.2c0,0,0,0,0,0l17.6,10l0,0c0.1,0.1,0.2,0.1,0.4,0.1c0,0,0,0,0,0c0.4,0,0.7-0.2,1-0.5   l5.1,2.9l0.4-0.8l-5.1-2.9c0.1-0.4,0.1-0.8-0.1-1.1c-0.1-0.1-0.1-0.2-0.2-0.2l0,0l0,0c0,0,0,0,0,0l-17.6-9.9c0,0,0-0.1,0-0.1   c0-0.5-0.2-1-0.6-1.2l0,0l0,0c0,0,0,0,0,0s0,0,0,0l-2.7-1.6l0.9-0.3l0.1-0.8l-7.4-4.2l-0.3,0l-3.1,0.9c-0.1-0.5-0.4-1-0.8-1.2l0,0   l0,0c0,0,0,0,0,0c0,0,0,0,0,0l-0.1,0l9.9-13l1.4,0.8c0,0,0,0,0,0c0,0,0,0,0,0l0,0l0,0c0.2,0.1,0.3,0.1,0.5,0.1   c0.3,0,0.5-0.1,0.8-0.2c0,0,0,0,0,0l17.6,10l0,0c0.1,0.1,0.2,0.1,0.4,0.1c0,0,0,0,0,0c0.4,0,0.7-0.2,1-0.5l5.1,2.9l0.4-0.8   l-5.1-2.9c0.1-0.4,0.1-0.8-0.1-1.1c-0.1-0.1-0.1-0.2-0.2-0.2l0,0l0,0c0,0,0,0,0,0L66.8,18c0,0,0-0.1,0-0.1c0-0.5-0.2-1-0.6-1.2l0,0   l0,0c0,0,0,0,0,0s0,0,0,0l-0.9-0.5l0.5-0.7l-0.1-0.7l-7.3-4.3l-0.5,0.1l-0.8,0.8L54.6,10c-0.3-0.1-0.6-0.1-1,0l-1.2-0.7   c-0.3-0.2-0.7-0.1-1,0.1c-0.6,0.4-1.1,1.2-1.1,1.9c0,0.3,0.1,0.6,0.3,0.8l1.4,0.8c0,0.3,0.1,0.6,0.3,0.8l1.2,0.7L38.9,26.4   l-6.2-3.5l0,0c0,0,0,0,0,0l-1.2-0.7l0,0c0,0,0,0,0,0l-2.5-1.4c-0.5-0.3-1.1-0.3-1.6,0c-0.9,0.5-1.6,1.7-1.6,2.7   c0,0.5,0.3,1,0.8,1.3l8.5,4.8l-2.6,2.2l-1.8-1l-0.5,0l-0.7,0.5l0,0l-6.7,4.5l-3.7-2.1l0,0c0,0,0,0,0,0l-1.2-0.7l0,0c0,0,0,0,0,0   l-2.5-1.4c-0.5-0.3-1.1-0.3-1.6,0c-0.9,0.5-1.6,1.7-1.6,2.7c0,0.5,0.3,1,0.8,1.3l7.3,4.2L8.5,46.1l-2.2-1.2c-0.3-0.1-0.6-0.1-1,0   l-1.2-0.7c-0.3-0.2-0.7-0.1-1,0.1C2.5,44.6,2,45.4,2,46.2c0,0.3,0.1,0.6,0.3,0.8l1.4,0.8c0,0.3,0.1,0.6,0.3,0.8l0,0l-1.2,0.6l0,0.8   l9.6,5.3l0.3,0l1.9-0.6l0.7,0.4L7.6,67.4c-0.2,0-0.5,0-0.7,0.1l-1.2-0.7c-0.3-0.2-0.7-0.1-1,0.1c-0.6,0.4-1.1,1.2-1.1,1.9   c0,0.3,0.1,0.6,0.3,0.8l1.4,0.8c0,0.2,0.1,0.4,0.2,0.5l-0.7,1l0.2,0.6l9.1,5.2l0.6-0.1l0.8-0.8l2,1.2c0,0,0,0,0,0c0,0,0,0,0,0l0,0   l0,0c0.2,0.1,0.3,0.1,0.5,0.1c0.3,0,0.5-0.1,0.8-0.2c0,0,0,0,0,0l19.4,10.9l0,0C38,89,38.2,89,38.3,89c0,0,0,0,0,0   c0.4,0,0.7-0.2,1-0.5l5.1,2.9l0.4-0.8l-5.1-2.9c0.1-0.4,0.1-0.8-0.1-1.1c-0.1-0.1-0.1-0.2-0.2-0.2l0,0l0,0c0,0,0,0,0,0L20,75.5   c0,0,0-0.1,0-0.1c0-0.5-0.2-1-0.6-1.2l0,0l0,0c0,0,0,0,0,0s0,0,0,0l-1.2-0.7L28.9,62l7.6,4.3l0,0c0.1,0.1,0.2,0.1,0.4,0.1   c0,0,0,0,0,0c0.4,0,0.7-0.2,1-0.5l5.1,2.9l0.4-0.8l-5.1-2.9c0.1-0.4,0.1-0.8-0.1-1.1l0,0c-0.1-0.1-0.1-0.2-0.2-0.2l0,0l0,0   c0,0,0,0,0,0l-7-3.9l1.2-1.3l1,0.6c0.1,0,0.1,0.1,0.2,0.1l0,0l2,1.2c0,0,0,0,0,0c0,0,0,0,0,0l0,0l0,0c0.3,0.1,0.5,0.2,0.8,0.2   c0.4,0,0.9-0.1,1.3-0.4c1.5-0.9,2.7-2.9,2.7-4.7c0-0.4-0.1-0.7-0.2-1.1l3.7,0.4l51.8,22.5l0.5-0.1l2.4-2.1l0.1-0.6   C97,72.5,94.9,70.6,92.6,69.3z M88.2,67.8L86.5,69L64.1,55l3-2L88.2,67.8z M51.5,51.1l0.9-3.3l8.6,6L51.5,51.1z M50.9,43.2l4.3,1.3   L52,46.6l-4.3-1.3L50.9,43.2z M51.5,47.4l-0.8,3l-3-4.1L51.5,47.4z M66.4,52.4l-3,2l-10.5-7.3l3.4-2.3L66.4,52.4z M64.4,43.2   L64.4,43.2c-0.1-0.1-0.2-0.2-0.2-0.4c0-0.7,0.5-1.5,1-1.8c0.2-0.1,0.4-0.1,0.4-0.1l0,0c0.1,0,0.1,0.1,0.1,0.2   c-0.3,0.1-0.7,0.3-1,0.7c-0.1,0.1-0.1,0.2-0.1,0.2c-0.2,0.4-0.2,0.9-0.1,1.2C64.5,43.2,64.5,43.2,64.4,43.2z M82.8,52   c-0.1,0.2-0.2,0.4-0.2,0.6l-17.1-9.7c0-0.1,0-0.3,0.1-0.6C65.8,42,66,42,66,41.9l17.2,9.7C83,51.7,82.9,51.9,82.8,52z M83.4,53   C83.4,53,83.4,53,83.4,53L83.4,53C83.5,53,83.5,53,83.4,53z M83.9,52.2C83.9,52.2,83.9,52.1,83.9,52.2C84,52.1,83.9,52.2,83.9,52.2   L83.9,52.2z M64.8,40.3c-0.7,0.5-1.3,1.5-1.3,2.3l-4.2-2.5l3.3-1.2L64.8,40.3z M50.8,42.2l-0.9-0.5l12.4-4.5l0.9,0.5L50.8,42.2z    M56.8,34.1l4.5,2.5l-12.4,4.5l-1-0.5c-0.1-0.3-0.4-0.6-0.6-0.9l0.5-0.6l1,0.6c0,0,0,0,0,0c0,0,0,0,0,0l0,0l0,0   c0.3,0.1,0.5,0.2,0.8,0.2c0.4,0,0.9-0.1,1.3-0.4c1.5-0.8,2.6-2.8,2.7-4.5L56.8,34.1z M45.5,39.9c0.8,0,1.4,0.5,1.7,1.1   c-0.1,0.1-0.2,0.2-0.3,0.2c-0.7,0.4-2,0.4-2.7,0c-0.2-0.1-0.2-0.2-0.3-0.2C44.1,40.3,44.7,39.9,45.5,39.9z M45.5,42.5   c0.5,0,1-0.1,1.4-0.3c0,0,0,0-0.1,0c-0.7,0.4-2,0.4-2.7,0c0,0,0,0-0.1,0C44.5,42.3,45,42.5,45.5,42.5z M29.2,24.8   c0-0.7,0.5-1.6,1.1-1.9c0.2-0.1,0.4-0.1,0.7,0l0,0c-0.8,0.5-1.4,1.5-1.4,2.5l-0.1,0l0,0C29.3,25.2,29.2,25,29.2,24.8z M30.5,25.5   c0-0.7,0.5-1.6,1.1-1.9c0.2-0.1,0.4-0.1,0.6,0l3,1.7c-0.8,0.5-1.4,1.5-1.4,2.5l-3-1.7l0,0C30.6,25.9,30.5,25.7,30.5,25.5z    M34.6,27.9c0-0.7,0.5-1.6,1.1-1.9c0.2-0.1,0.5-0.1,0.7,0l0,0l2.7,1.5c-0.7,0.6-1.2,1.5-1.6,2.4l-2.6-1.5l0,0   C34.7,28.3,34.6,28.1,34.6,27.9z M40.4,27.7c0.5-0.3,1.1-0.3,1.6,0l0,0c-0.1,0.1-0.3,0.1-0.4,0.2c-1.5,0.9-2.7,2.9-2.7,4.7   c0,0.1,0,0.3,0,0.4l-0.5-0.3c-0.2-0.2-0.3-0.6-0.3-1.1C38.1,30.2,39.1,28.4,40.4,27.7z M39.8,32.6c0-1.4,1-3.2,2.3-3.9   c0.5-0.3,1-0.4,1.3-0.2l7.6,4.3c-0.1,0.1-0.3,0.1-0.4,0.2c-1.5,0.9-2.7,2.9-2.7,4.7c0,0.2,0,0.3,0,0.4l-7.5-4.4l0,0   C40,33.6,39.8,33.2,39.8,32.6z M52.8,34.8c0,1.4-1,3.2-2.3,3.9C50.3,38.9,50,39,49.8,39l0.6-1.2c0.2,0,0.4-0.1,0.6-0.2   c0.6-0.4,1.1-1.2,1.1-1.9c0-0.3-0.1-0.5-0.2-0.7l0.6-1.2C52.7,34.1,52.8,34.4,52.8,34.8z M50.5,36.9c-0.1,0.1-0.2,0.1-0.2,0.1   c0,0,0-0.1,0-0.2c0-0.4,0.3-1,0.7-1.2c0.1-0.1,0.2-0.1,0.2-0.1c0,0,0,0.1,0,0.2C51.2,36.1,50.9,36.7,50.5,36.9z M51.8,33.5   l-0.6,1.1c-0.2,0-0.4,0.1-0.6,0.2c-0.6,0.4-1.1,1.2-1.1,1.9c0,0.3,0.1,0.5,0.2,0.7l-0.7,1.2c-0.1-0.2-0.2-0.5-0.2-0.9   c0-1.4,1-3.2,2.3-3.9C51.3,33.6,51.5,33.5,51.8,33.5z M64.4,19.8L64.4,19.8c-0.1-0.1-0.2-0.2-0.2-0.4c0-0.7,0.5-1.5,1-1.8   c0.2-0.1,0.4-0.1,0.4-0.1l0,0c0.1,0,0.1,0.1,0.1,0.2c-0.3,0.1-0.7,0.3-1,0.7c-0.1,0.1-0.1,0.2-0.1,0.2c-0.2,0.4-0.2,0.9-0.1,1.2   C64.5,19.9,64.5,19.9,64.4,19.8z M82.8,28.7c-0.1,0.2-0.2,0.4-0.2,0.6l-17.1-9.7c0-0.1,0-0.3,0.1-0.6c0.2-0.3,0.4-0.4,0.4-0.4   l17.1,9.7C83,28.4,82.9,28.5,82.8,28.7z M83.4,29.7C83.4,29.6,83.4,29.6,83.4,29.7L83.4,29.7C83.5,29.6,83.5,29.7,83.4,29.7z    M83.9,28.8C83.9,28.8,83.9,28.8,83.9,28.8C84,28.8,83.9,28.8,83.9,28.8L83.9,28.8z M58.3,11.6l6.6,3.8l-0.3,0.4l-6.7-3.8   L58.3,11.6z M51.1,11.3c0-0.4,0.3-1,0.7-1.2c0.1-0.1,0.2-0.1,0.2-0.1l0.8,0.5C52.4,11,52.1,11.5,52,12l-0.8-0.5   C51.1,11.5,51.1,11.4,51.1,11.3z M52.7,12.7c0-0.7,0.5-1.5,1-1.8c0.2-0.1,0.3-0.1,0.4-0.1l10.6,6.1c-0.7,0.5-1.3,1.5-1.3,2.3   l-10.6-6.1C52.8,13,52.7,12.9,52.7,12.7z M56.7,16.4l-2,1.8l-2.5-1.5l2.1-1.7L56.7,16.4z M50.1,22.2l-2.7-1.6l0.5-0.4l2.7,1.6   L50.1,22.2z M49.4,22.9l-0.5,0.4l-2.8-1.6l0.5-0.4L49.4,22.9z M51.2,21.2l-2.7-1.6l0.5-0.4l2.7,1.6L51.2,21.2z M52.4,20.2l-2.6-1.5   l0.5-0.4l2.6,1.5L52.4,20.2z M53.6,19.2L51,17.6l0.5-0.4l2.6,1.5L53.6,19.2z M45.4,22.2l3.4,2l0.5-0.1l8.3-7.3l4.3,2.5l-8,10.4   l-2.9-1.6l0.2-1l-0.2-0.5L46,24.1l-0.5,0l-2,1.6l0.6,0.7l1.7-1.4l4.3,2.4l-0.2,1l0.2,0.5l3.1,1.6l-1.4,1.8l-8.1-4.6l0,0   c0,0,0,0,0,0l-1.4-0.8c-0.8-0.4-1.7-0.5-2.5,0c0,0,0,0,0,0l-0.2-0.1L45.4,22.2z M26.7,23.4c0-0.7,0.5-1.6,1.1-1.9   c0.2-0.1,0.5-0.1,0.7,0l1.2,0.7c-0.8,0.5-1.4,1.5-1.4,2.5L27,23.9C26.8,23.8,26.7,23.6,26.7,23.4z M35.9,30l1.4,0.8   c0,0.3-0.1,0.5-0.1,0.8c0,0.7,0.2,1.4,0.6,1.8l1.9,1.1c0.1,0,0.1,0.1,0.2,0.1l0,0l7.1,4.1l-0.4,0.6c-0.3-0.2-0.7-0.2-1.1-0.2   c-0.1,0-0.2,0-0.3,0l-12-6.8L35.9,30z M30.4,31.6l13.6,7.8c-0.8,0.5-1.3,1.3-1.3,2.3c0,0.5,0.3,1,0.9,1.3c0.5,0.3,1.2,0.4,1.8,0.4   s1.3-0.1,1.8-0.4c0.5-0.3,0.8-0.8,0.9-1.2l1.8,1L46.6,45L27.1,33.9L30.4,31.6z M39.4,45.5c0,1.4-1,3.2-2.3,3.9   c-0.3,0.2-0.5,0.2-0.8,0.3l0.6-1.2c0.2,0,0.4-0.1,0.6-0.2c0.6-0.4,1.1-1.2,1.1-1.9c0-0.3-0.1-0.5-0.2-0.7l0.7-1.2   C39.3,44.8,39.4,45.1,39.4,45.5z M37.1,47.6c-0.1,0.1-0.2,0.1-0.2,0.1h0c0,0,0-0.1,0-0.2c0-0.4,0.3-1,0.7-1.2   c0.1-0.1,0.2-0.1,0.2-0.1c0,0,0,0.1,0,0.2C37.8,46.8,37.5,47.4,37.1,47.6z M38,44.2c0,0,0.1,0,0.1,0c0.1,0,0.2,0,0.2,0l-0.6,1.1   c-0.2,0-0.4,0.1-0.6,0.2c-0.6,0.4-1.1,1.2-1.1,1.9c0,0.3,0.1,0.5,0.2,0.7l-0.7,1.2c-0.1-0.2-0.2-0.5-0.2-0.9c0-1.4,1-3.2,2.3-3.9   C37.7,44.4,37.9,44.3,38,44.2z M37.1,43.7c-1.5,0.9-2.7,2.9-2.7,4.7c0,0.2,0,0.3,0,0.4l-2.8-1.6l0,0c-0.3-0.2-0.5-0.6-0.5-1.2   c0-0.8,0.3-1.7,0.8-2.5l-0.2-0.6l-2.8-1.6l-0.6,0.1c-0.6,0.9-1,2-1,3c0,0.1,0,0.3,0,0.4l-0.7-0.4c-0.3-0.2-0.5-0.6-0.5-1.2   c0-1.4,1-3.2,2.3-3.9c0.5-0.3,1-0.4,1.3-0.2l0,0l7.6,4.3C37.4,43.5,37.3,43.6,37.1,43.7z M28.9,45.6c-0.2-0.1-0.5-0.4-0.5-1.1   c0-0.7,0.2-1.4,0.6-2.1l2,1.1c-0.5,0.8-0.7,1.8-0.7,2.6c0,0.1,0,0.3,0,0.4L28.9,45.6z M28.2,38.6c-1.5,0.9-2.7,2.9-2.7,4.7   c0,0.1,0,0.3,0,0.4L25,43.3c-0.2-0.2-0.3-0.6-0.3-1.1c0-1.4,1-3.2,2.3-3.9c0.5-0.3,1.1-0.3,1.6,0l0,0   C28.5,38.4,28.3,38.5,28.2,38.6z M24.1,40.8l-2.7-1.6l0,0c-0.2-0.1-0.3-0.3-0.3-0.5c0-0.7,0.5-1.6,1.1-1.9c0.2-0.1,0.5-0.1,0.7,0   l0,0l2.8,1.6C24.9,39,24.4,39.9,24.1,40.8z M15.6,35.6c0-0.7,0.5-1.6,1.1-1.9c0.2-0.1,0.4-0.1,0.7,0l0,0c-0.8,0.5-1.4,1.5-1.4,2.5   l-0.1,0l0,0C15.7,36,15.6,35.8,15.6,35.6z M16.9,36.3c0-0.7,0.5-1.6,1.1-1.9c0.2-0.1,0.4-0.1,0.6,0l3,1.7c-0.8,0.5-1.4,1.5-1.4,2.5   l-3-1.7l0,0C17,36.7,16.9,36.5,16.9,36.3z M13.1,34.2c0-0.7,0.5-1.6,1.1-1.9c0.2-0.1,0.5-0.1,0.7,0l1.2,0.7   c-0.8,0.5-1.4,1.5-1.4,2.5l-1.3-0.7C13.2,34.6,13.1,34.4,13.1,34.2z M21.2,40.2l2.1,1.2l-3.7,2.4l0,0.8l3.4,1.6l0.4-0.8L20.7,44   l3.1-2c0,0.1,0,0.2,0,0.2c0,0.7,0.2,1.4,0.6,1.8l1.8,1.1c0.1,0.1,0.1,0.1,0.2,0.1l0,0l1.9,1.1c0,0,0,0,0.1,0l0,0l3.7,2.1l-13.6,4.2   c0-0.5-0.2-0.9-0.6-1.1l0,0l0,0c0,0,0,0,0,0s0,0,0,0l-8.5-4.9L21.2,40.2z M38.4,54.2l-0.6,1.1c-0.2,0-0.4,0.1-0.6,0.2   c-0.6,0.4-1.1,1.2-1.1,1.9c0,0.3,0.1,0.5,0.2,0.7l-0.7,1.2c-0.1-0.2-0.2-0.5-0.2-0.9c0-1.4,1-3.2,2.3-3.9   C37.9,54.3,38.1,54.3,38.4,54.2z M37.1,57.6c-0.1,0.1-0.2,0.1-0.2,0.1c0,0,0-0.1,0-0.2c0-0.4,0.3-1,0.7-1.2   c0.1-0.1,0.2-0.1,0.2-0.1c0,0,0,0.1,0,0.2C37.8,56.9,37.5,57.4,37.1,57.6z M37.1,53.7c-1.5,0.9-2.7,2.9-2.7,4.7c0,0.2,0,0.3,0,0.4   l-0.7-0.4c-0.3-0.2-0.5-0.6-0.5-1.2c0-0.8,0.3-1.7,0.8-2.5l-0.2-0.6l-2.8-1.6l-0.6,0.1c-0.6,1-1,2-1,3c0,0.1,0,0.2,0,0.4l-2.7-1.6   l0,0c-0.3-0.2-0.5-0.6-0.5-1.2c0-0.7,0.3-1.5,0.7-2.3l3.9-1.2l6.5,3.7C37.4,53.6,37.3,53.6,37.1,53.7z M30.8,56.7   c-0.2-0.1-0.3-0.4-0.3-1.1c0-0.7,0.2-1.4,0.6-2.1l2,1.1c-0.5,0.8-0.7,1.8-0.7,2.6c0,0.1,0,0.3,0,0.4L30.8,56.7z M24.8,51.7l1.2-0.4   c-0.3,0.7-0.4,1.3-0.4,1.9c0,0.1,0,0.3,0,0.4L25,53.4c-0.2-0.2-0.3-0.6-0.3-1.1C24.7,52.1,24.7,51.9,24.8,51.7z M36.4,64.5   c-0.1,0.2-0.2,0.4-0.2,0.6L17.2,54.4c0-0.1,0-0.3,0.1-0.6c0.2-0.3,0.4-0.4,0.4-0.4l18.9,10.7C36.6,64.2,36.5,64.3,36.4,64.5z    M14.9,71.9l-1.4-0.7l-0.4,0l-1,0.7l-1.9-1.1l0-1.3l-0.2-0.4l-1.7-1L9,66.8l1.6,0.9l0.5,0l1.2-0.8l2.2,1.1v1.4l0.2,0.4l1.4,0.8   L14.9,71.9z M16.7,69.9l-1.3-0.8v-1.4l-0.2-0.4L12.5,66l-0.4,0l-1.2,0.8L9.5,66l6.8-10.4c0,0,0,0,0,0c0.3,0,0.5-0.1,0.8-0.2   c0,0,0,0,0,0l8.3,4.7L16.7,69.9z M13.8,53c0-0.7,0.5-1.5,1-1.8C15,51,15.2,51,15.3,51l0,0l1.2,0.7c-0.7,0.5-1.3,1.5-1.3,2.3   L14,53.4l0,0C13.9,53.3,13.8,53.2,13.8,53z M16,54.2c0-0.7,0.5-1.5,1-1.8c0.2-0.1,0.4-0.1,0.4-0.1l0,0c0.1,0,0.1,0.1,0.1,0.2   c-0.3,0.1-0.7,0.3-1,0.7c-0.1,0.1-0.1,0.2-0.1,0.2c-0.2,0.4-0.2,0.9-0.1,1.2c-0.1,0-0.1,0-0.2,0l0,0C16.1,54.6,16,54.5,16,54.2z    M6,45.7l8.3,4.8c-0.7,0.5-1.3,1.5-1.3,2.3l-8.4-4.8c-0.1-0.1-0.1-0.2-0.1-0.4c0-0.7,0.5-1.5,1-1.8C5.7,45.7,5.9,45.6,6,45.7z    M2.9,46.2c0-0.4,0.3-1,0.7-1.2c0.1-0.1,0.2-0.1,0.2-0.1l0.8,0.5c-0.4,0.4-0.7,0.9-0.8,1.4l-0.8-0.5C2.9,46.3,2.9,46.3,2.9,46.2z    M12.7,54.5L4,49.7l0.9-0.5l8.6,5c0,0,0,0,0,0l0,0l0.1,0.1L12.7,54.5z M4.3,68.8c0-0.4,0.3-1,0.7-1.2c0.1-0.1,0.2-0.1,0.2-0.1   L6,68.1c-0.4,0.4-0.7,0.9-0.8,1.4L4.4,69C4.3,69,4.3,68.9,4.3,68.8z M6.8,68.6L6,69.8C6.1,69.3,6.5,68.9,6.8,68.6z M7.7,68.9   l1.5,0.9l0,1.3l0.2,0.4l2.3,1.4l0.5,0l1.1-0.7l1,0.4l-2.6,3l-6.1-3.5L7.7,68.9z M17.6,77.3L17.6,77.3c-0.1-0.1-0.2-0.2-0.2-0.4   c0-0.7,0.5-1.5,1-1.8C18.7,75,18.9,75,19,75l0,0c0.1,0,0.1,0.1,0.1,0.2c-0.3,0.1-0.7,0.3-1,0.7C18.1,76,18,76.1,18,76.2   c-0.2,0.4-0.2,0.9-0.1,1.2C17.8,77.4,17.7,77.4,17.6,77.3z M37.8,87.1c-0.1,0.2-0.2,0.4-0.2,0.6L18.7,77.1c0-0.1,0-0.3,0.1-0.6   c0.2-0.3,0.4-0.4,0.4-0.4l18.9,10.6C38,86.8,37.9,86.9,37.8,87.1z M38.4,88.1C38.4,88.1,38.4,88.1,38.4,88.1L38.4,88.1   C38.4,88.1,38.4,88.1,38.4,88.1z M38.8,87.3C38.9,87.2,38.9,87.2,38.8,87.3C38.9,87.2,38.9,87.3,38.8,87.3L38.8,87.3z M18,74.4   c-0.7,0.5-1.3,1.5-1.3,2.3l-0.8-0.5l1.9-2L18,74.4z M14,76.9l-1.5-0.8l13.7-15.6l0,0l2,1.1L14,76.9z M37,65.5   C37,65.5,37,65.4,37,65.5L37,65.5C37,65.4,37,65.5,37,65.5z M37.4,64.6C37.4,64.6,37.5,64.6,37.4,64.6   C37.5,64.6,37.5,64.6,37.4,64.6L37.4,64.6z M30.2,59.4l-10.7-6l4.3-1.3c0,0.1,0,0.2,0,0.3c0,0.7,0.2,1.4,0.6,1.8l1.8,1.1   c0.1,0.1,0.1,0.1,0.2,0.1l0,0l3.9,2.3c0,0,0.1,0.1,0.1,0.1l0,0l0.8,0.5L30.2,59.4z M37.1,59.5c-0.3,0.2-0.5,0.2-0.8,0.3l0.6-1.2   c0.2,0,0.4-0.1,0.6-0.2c0.6-0.4,1.1-1.2,1.1-1.9c0-0.3-0.1-0.5-0.2-0.7l0.7-1.2c0.1,0.2,0.2,0.5,0.2,0.9   C39.4,57,38.4,58.7,37.1,59.5z M44.5,54.2l1.1-4.1l0-0.2L45,46.6l-0.9,0.2l0.6,3.3L43.6,54l-4.3-0.5l-7.1-4.1l1.1-0.3l2.2,1.3l0,0   c0,0,0,0,0,0c0.2,0.1,0.5,0.2,0.8,0.2c0.4,0,0.9-0.1,1.3-0.4l0,0c0,0,0,0,0,0c1.5-0.9,2.7-2.9,2.7-4.7c0-0.9-0.3-1.6-0.9-2l0,0l0,0   c0,0,0,0,0,0c0,0,0,0,0,0L29,37.6c-0.8-0.4-1.7-0.5-2.5,0c-0.1,0-0.1,0.1-0.2,0.1l-2.7-1.5l2.7-1.8l20.1,11.5l4.2,5.8l0.2,0.2   l5.9,1.7l-0.7,3.3l0.9,0.2l0.7-3.3l1.7,0.5l-0.7,3.2l0.9,0.2l0.7-3.2l3,0.9L86,69.7l-0.6,2.3L44.5,54.2z M95.7,76.5l-9.4-4.1   l0.6-2.6l2.1-1.5l3.2,1.8c2.1,1.2,4,2.8,5.4,4.8L95.7,76.5z"/><path class="st0" d="M21.8,62.3L17,59.5l-0.6,0.1l-3.6,5.3l0.2,0.6l4.1,2.2l0.5-0.1l4.2-4.7L21.8,62.3z M17.2,66.8L13.9,65l3-4.5   l3.9,2.3L17.2,66.8z"/><path class="st0" d="M36,38.3c0.3,0.2,0.7,0.3,1,0.3c0.4,0,0.7-0.1,1-0.3c0.4-0.2,0.6-0.5,0.6-0.9c0-0.3-0.2-0.7-0.6-0.9   c-0.6-0.3-1.5-0.3-2.1,0c-0.4,0.2-0.6,0.5-0.6,0.9C35.4,37.8,35.6,38.1,36,38.3z M36.4,37.4c0.3-0.2,0.9-0.2,1.2,0   c0.1,0,0.1,0.1,0.1,0.1c0,0,0,0-0.1,0.1l0,0c-0.3,0.2-0.9,0.2-1.2,0c-0.1,0-0.1-0.1-0.1-0.1C36.3,37.4,36.3,37.4,36.4,37.4z"/><path class="st0" d="M46.4,41.3c0.1,0,0.2,0,0.3-0.1c0.1-0.1,0.1-0.2,0.1-0.3c0-0.1,0-0.1,0-0.2c0-0.1-0.1-0.1-0.1-0.1   c-0.1-0.1-0.3-0.2-0.5-0.1c-0.1,0-0.1,0.1-0.1,0.1S46,40.6,46,40.6c0,0,0,0.1,0,0.2c0,0.1,0,0.2,0.1,0.3   C46.1,41.2,46.3,41.3,46.4,41.3z"/></g><text x="0" y="115" fill="#000000" font-size="5px" font-weight="bold" font-family="'Helvetica Neue', Helvetica, Arial-Unicode, Arial, Sans-serif"></text><text x="0" y="120" fill="#000000" font-size="5px" font-weight="bold" font-family="'Helvetica Neue', Helvetica, Arial-Unicode, Arial, Sans-serif"></text></svg>
